# xmcd
#
# Track frame offsets: 
#        150
#        25158
#        42603
#        65292
#        83772
#        104722
#        129752
#        150286
#        169269
#        196934
#        215614
#
# Disc length: 3126 seconds
#
# Revision: 0
# Processed by: cddbd v1.5.2PL0 Copyright (c) Steve Scherf et al.
# Submitted via: ExactAudioCopyFreeDBPlugin 1.0
#
DISCID=8e0c340b
DTITLE=Cam Ly - Mua dong trang
DYEAR=1900
DGENRE=
TTITLE0=Mua dong trang
TTITLE1=Minh Thuan - Anh yeu ta ao trang
TTITLE2=Le Uyen Nhy - Tinh phieu lang
TTITLE3=Tinh trong mo
TTITLE4=Thanh Thanh - Nhu la
TTITLE5=Quang Vinh - Doi cho 1 giac mo
TTITLE6=Minh Thuan - Bai hat xuan cho em
TTITLE7=Vet bui thoi gian
TTITLE8=Thanh Thanh - Mot thoi sinh vien
TTITLE9=Quanh Vinh - Ngay anh den
TTITLE10=Tinh trong mo
EXTD=
EXTT0=
EXTT1=
EXTT2=
EXTT3=
EXTT4=
EXTT5=
EXTT6=
EXTT7=
EXTT8=
EXTT9=
EXTT10=
PLAYORDER=
